<svg xmlns="http://www.w3.org/2000/svg" version="1.1" xmlns:xlink="http://www.w3.org/1999/xlink" xmlns:svgjs="http://svgjs.dev/svgjs" width="482.678" height="482.678"><svg xml:space="preserve" width="482.678" height="482.678" viewBox="0 0 182.438 180.571" version="1.1" id="SvgjsSvg1024" sodipodi:docname="app_icon_usa.svg" inkscape:version="1.4 (e7c3feb100, 2024-10-09)" xmlns:inkscape="http://www.inkscape.org/namespaces/inkscape" xmlns:sodipodi="http://sodipodi.sourceforge.net/DTD/sodipodi-0.dtd" xmlns="http://www.w3.org/2000/svg" xmlns:svg="http://www.w3.org/2000/svg"><defs id="SvgjsDefs1023"></defs><sodipodi:namedview id="SvgjsSodipodi:namedview1022" pagecolor="#ffffff" bordercolor="#000000" borderopacity="0.25" inkscape:showpageshadow="2" inkscape:pageopacity="0.0" inkscape:pagecheckerboard="0" inkscape:deskcolor="#d1d1d1" inkscape:zoom="0.8618582" inkscape:cx="388.69503" inkscape:cy="114.86808" inkscape:window-width="1920" inkscape:window-height="1043" inkscape:window-x="0" inkscape:window-y="0" inkscape:window-maximized="1" inkscape:current-layer="g3"></sodipodi:namedview><g transform="translate(-15.152 -89.708)" id="SvgjsG1021"><rect width="132.73" height="132.73" x="135.41" y="-17.353" fill="none" stroke="#000" stroke-linejoin="round" stroke-width="8.153" ry="19.419" style="paint-order:normal;fill:#f6fa41;fill-opacity:1" transform="scale(.98474 1.015)rotate(45)" id="SvgjsRect1020"></rect><g transform="translate(0 -4.43)" id="SvgjsG1019"><path id="SvgjsPath1018" style="stroke:none;stroke-width:1.27262;stroke-opacity:1;paint-order:normal" d="m 105.73637,159.06616 c -27.314455,0 -33.1219,11.14643 -35.224707,17.01848 -1.541747,2.67038 -1.651295,2.99625 -5.635507,2.99625 H 49.55497 c -2.28736,0 -3.644589,1.3289 -3.644589,3.64365 v 3.75821 c 0,2.28736 1.357229,3.64365 3.644589,3.64365 h 113.63207 c 2.28734,0 3.64458,-1.41111 3.64458,-3.64365 v -3.75821 c 0,-2.28734 -1.35724,-3.64365 -3.64458,-3.64365 h -15.19813 c -3.86723,0 -3.79842,-0.11929 -5.33847,-2.78674 -2.46971,-5.76288 -9.26759,-17.22799 -36.91407,-17.22799 z" sodipodi:nodetypes="sccssssssssccs"></path></g></g></svg><style>@media (prefers-color-scheme: light) { :root { filter: none; } }
@media (prefers-color-scheme: dark) { :root { filter: none; } }
</style></svg>