<svg xmlns="http://www.w3.org/2000/svg" xml:space="preserve" width="2231.532" height="597.102" viewBox="0 0 843.471 223.375"><path d="m102.117 8.536 65.38 67.388a19.082 19.668 0 0 1 0 27.874l-65.38 67.388a19.082 19.668 0 0 1-27.044 0l-65.38-67.388a19.082 19.668 0 0 1 0-27.874l65.38-67.388a19.082 19.668 0 0 1 27.044 0z" style="fill:#f6fa41;stroke:#000;stroke-width:8.15109;stroke-linejoin:round" transform="matrix(1.23819 0 0 1.23819 0 .537)"/><path d="M87.96 65.713c-27.313 0-33.121 11.146-35.224 17.018-1.542 2.67-1.651 2.996-5.636 2.996H31.78c-2.287 0-3.644 1.33-3.644 3.644v3.758c0 2.287 1.357 3.644 3.644 3.644h113.63c2.288 0 3.645-1.412 3.645-3.644v-3.758c0-2.288-1.357-3.644-3.645-3.644h-15.2c-3.866 0-3.797-.12-5.337-2.787-2.47-5.762-9.268-17.228-36.914-17.228z" style="paint-order:normal" transform="matrix(1.23819 0 0 1.23819 0 .537)"/><path d="M254.628 108.378q0 .43-.313.671-.313.24-.844.24-.272 0-.503-.04t-.386-.114v-.39q.164.073.404.132.245.06.504.06.362 0 .544-.142.186-.14.186-.38 0-.16-.068-.269t-.236-.2q-.163-.095-.458-.199-.413-.15-.626-.367-.21-.218-.21-.594 0-.259.133-.44.13-.186.363-.286.235-.1.54-.1.267 0 .49.05t.403.131l-.127.35q-.168-.073-.367-.123-.195-.05-.41-.05-.303 0-.457.132-.154.127-.154.34 0 .163.068.272t.222.195.418.186q.285.105.48.227.2.118.3.286.104.168.104.422m1.51-2.373q.636 0 .926.25t.29.703q0 .267-.122.503-.118.232-.404.377-.281.145-.767.145h-.371v1.261h-.41v-3.239zm-.036.35h-.413v1.28h.327q.463 0 .69-.15t.226-.509q0-.313-.2-.467t-.63-.154m3.733 2.89h-1.81v-3.24h1.81v.36h-1.401v1.01h1.32v.354h-1.32v1.157h1.4zm2.522 0h-1.81v-3.24h1.81v.36h-1.401v1.01h1.32v.354h-1.32v1.157h1.4zm3.307-1.652q0 .82-.45 1.238-.443.413-1.242.413h-.902v-3.239h.997q.49 0 .849.182.358.181.553.535.195.35.195.87m-.43.013q0-.648-.323-.948-.317-.303-.903-.303h-.53v2.54h.44q1.315 0 1.315-1.289m2.072-1.6q.608 0 .916.18.313.178.313.622 0 .286-.158.476-.16.186-.458.24v.024q.204.031.367.117.168.087.263.245.095.16.095.413 0 .44-.304.68-.3.241-.82.241h-1.14v-3.239zm.082 1.378q.417 0 .57-.13.156-.137.156-.4 0-.268-.191-.38-.186-.119-.6-.119h-.534v1.03zm-.6.34v1.175h.654q.43 0 .599-.168.168-.167.168-.44 0-.254-.177-.408-.172-.159-.622-.159zm5.004.377q0 .336-.136.608-.136.267-.417.426-.277.154-.708.154-.603 0-.92-.326-.314-.33-.314-.87v-2.088h.409v2.1q0 .395.208.613.214.218.64.218.44 0 .635-.232.2-.236.2-.603v-2.096h.403zm2.282 1.143-1.066-2.84h-.018q.013.141.022.381.01.236.01.495v1.964h-.377v-3.239h.603l.998 2.654h.018l1.016-2.654h.6v3.24h-.405v-1.992q0-.236.01-.468l.022-.376h-.018l-1.08 2.835z" aria-label="SPEEDBUMP" style="font-size:4.536px;fill:none;stroke-width:8.151;stroke-linejoin:round"/><path d="M307.432 107.611q0 11.883-6.303 20.346-6.122 8.463-19.806 8.463-12.965 0-19.807-9.003-6.662-9.003-7.202-23.228h16.025q.36 16.025 10.984 16.565 9.543-.72 9.723-13.144.36-7.923-8.463-20.887-8.643-12.964-15.485-21.427-5.042-6.302-7.562-12.964-2.341-6.843-2.341-12.424 0-10.984 6.302-19.627 6.482-8.643 18.006-8.643 9.903 0 17.466 7.743 7.562 7.742 7.742 20.527h-15.665q-.54-12.785-9.003-12.605-8.283.18-8.283 12.424-.18 4.142 1.98 8.643 2.162 4.502 6.123 9.003 12.964 15.125 19.266 27.37 6.303 12.064 6.303 22.867m66.982-60.14q0 13.324-8.103 21.966T346.504 77.9H337.5v56.36h-15.125V13.618h23.588q12.064 0 20.167 8.822 8.283 8.643 8.283 25.028m-15.665-.72q0-9.004-3.782-13.146-3.6-4.32-9.723-4.32H337.5v32.59h9.003q5.762-.54 9.003-4.68 3.242-4.143 3.242-10.445m77.605 87.51h-46.095V13.617h44.475v15.664h-29.35v30.97h19.627v16.026h-19.627v42.314h30.97zm58.52 0h-46.095V13.617h44.475v15.664h-29.35v30.97h19.626v16.026h-19.625v42.314h30.97zm66.802-60.32q0 29.71-6.662 45.014-6.482 15.305-20.527 15.305h-24.848V13.617h24.848q14.045 0 20.527 13.684 6.663 13.505 6.663 46.636m-15.125 0q-.36-30.25-4.14-37.453-3.782-7.382-9.904-7.202h-7.743v89.31h7.743q5.942.18 9.903-9.003 3.96-9.183 4.14-35.652M628.3 99.145q0 18.546-7.563 26.83-7.562 8.282-19.266 8.282h-25.03V13.617h24.31q11.523 0 18.186 8.283 6.842 8.282 6.842 23.948 0 15.485-7.563 24.308Q628.3 81.14 628.3 99.146m-17.286-54.018q0-6.662-2.52-10.803-2.522-4.322-7.023-5.042h-10.086v32.951h9.904q5.04-.54 7.382-5.402 2.34-4.86 2.34-11.704m1.8 54.018q.36-8.282-3.06-14.044-3.241-5.942-8.462-5.942h-9.904v39.433h10.264q4.68-.36 7.742-5.402 3.242-5.222 3.422-14.045m83.908 5.582q0 11.704-3.78 18.906-6.843 12.785-21.968 12.785-18.006 0-24.128-16.566-2.16-5.762-2.16-15.125v-91.11h15.124v93.09q0 14.046 11.164 14.046 10.443 0 10.443-14.045V13.62h15.305zm77.606 29.53h-15.125V62.774l-14.404 45.195-14.945-45.195v71.484h-15.125V13.618h13.144l16.926 49.156 16.205-49.156h13.324zM843.47 47.47q0 13.325-8.103 21.967-8.103 8.643-19.807 8.463h-9.003v56.36h-15.125V13.618h23.588q12.064 0 20.167 8.822 8.283 8.643 8.283 25.028m-15.666-.72q0-9.003-3.78-13.145-3.602-4.32-9.724-4.32h-7.743v32.59h9.003q5.762-.54 9.003-4.68 3.24-4.143 3.24-10.445" aria-label="SPEEDBUMP" style="font-size:180.06px;font-family:&quot;Highway Gothic Condensed&quot;;fill:#fff;stroke-width:20.225;stroke-linejoin:round"/><path d="M268.345 195.83q-3.648 0-6.595-2.035v1.192h-7.436v-44.06l7.436-3.718v15.084q2.245-2.385 6.455-2.455 14.172.28 14.172 18.522 0 17.47-14.032 17.47m6.736-17.54q0-10.805-6.876-11.226-4.28 0-6.314 3.438v15.435q2.596 3.368 6.525 3.297 6.594-.07 6.665-10.944m34.237-16.067-2.455 6.806q-2.105-2.105-4.28-2.035-4.7.14-4.981 6.595v21.398h-7.578v-34.869h7.507v2.526q1.895-2.806 5.473-2.806 3.578.07 6.314 2.385m32.063 18.733h-20.206q0 3.297 1.754 5.472 1.754 2.105 4.56 2.035 3.93.14 6.034-3.438l6.665 2.736q-3.508 7.858-12.558 8.068-6.385 0-10.314-4.7-3.858-4.7-3.858-13.47 0-7.227 3.718-12.49 3.789-5.331 10.454-5.331 6.244 0 9.962 4.91 3.789 4.912 3.789 16.208m-7.507-6.876q.07-2.947-1.684-5.122-1.684-2.174-4.56-2.174-3.087-.07-4.911 2.315-1.825 2.315-1.684 4.981zm39.99 20.907h-7.226v-1.122q-2.736 1.964-6.104 2.035-5.612-.07-9.33-3.158-3.65-3.157-3.65-9.12 0-5.122 3.369-8.56 3.437-3.508 9.26-3.437 3.228 0 6.034.771.14-5.121-5.192-5.612-4.56-.14-8.208 2.525l-3.719-5.683q5.052-3.578 11.717-3.788 5.472 0 9.19 3.157 3.79 3.087 3.86 9.05zm-7.857-7.927v-7.718q-3.087-.842-6.174-.842-2.456 0-4.07 1.614-1.613 1.613-1.543 3.648 0 2.105 1.614 4 1.684 1.893 4.49 1.893 3.017 0 5.683-2.595m44.55 7.927h-8.559l-9.892-19.293-4.28 4.49v14.803h-7.577v-43.99l7.577-3.788v23.363l9.402-9.892h9.541l-9.05 9.401zm50.585 0h-7.226v-1.122q-2.736 1.964-6.104 2.035-5.612-.07-9.33-3.158-3.65-3.157-3.65-9.12 0-5.122 3.368-8.56 3.438-3.508 9.261-3.437 3.228 0 6.034.771.14-5.121-5.192-5.612-4.56-.14-8.208 2.525l-3.719-5.683q5.052-3.578 11.717-3.788 5.472 0 9.19 3.157 3.79 3.087 3.86 9.05zm-7.857-7.927v-7.718q-3.087-.842-6.174-.842-2.456 0-4.07 1.614-1.613 1.613-1.543 3.648 0 2.105 1.614 4 1.683 1.893 4.49 1.893 3.017 0 5.683-2.595m29.046 8.77q-14.032 0-14.032-17.47 0-18.242 14.172-18.522 4.21.07 6.454 2.455v-11.365l7.437-3.719v47.778h-7.437v-1.192q-2.946 2.034-6.594 2.034m-6.736-17.54q.07 10.874 6.665 10.944 3.93.07 6.525-3.297v-15.435q-2.034-3.438-6.314-3.438-6.876.421-6.876 11.226m42.166 17.54q-14.032 0-14.032-17.47 0-18.242 14.172-18.522 4.21.07 6.455 2.455v-11.365l7.437-3.719v47.778h-7.437v-1.192q-2.947 2.034-6.595 2.034m-6.735-17.54q.07 10.874 6.665 10.944 3.929.07 6.524-3.297v-15.435q-2.034-3.438-6.314-3.438-6.875.421-6.875 11.226m36.833-27.292q0 1.613-1.123 2.736-1.122 1.052-2.666 1.052-1.473 0-2.666-1.122-1.122-1.193-1.122-2.666 0-1.474 1.122-2.596 1.193-1.193 2.666-1.193 1.474 0 2.596 1.193 1.193 1.122 1.193 2.596m.07 43.99h-7.647V160.68h7.647zm7.367-17.33q0-7.226 2.736-11.716 3.648-6.104 11.576-6.104 10.174 0 13.05 8.63l-6.946 2.806q-1.543-4.49-6.174-4.42-3.788 0-5.472 4.069-1.193 2.876-1.193 6.735t1.193 6.735q1.684 4.07 5.472 4.07 4.63.07 6.174-4.42l6.946 2.806q-2.876 8.63-13.05 8.63-7.928 0-11.576-6.104-2.736-4.49-2.736-11.717m49.743 9.822-2.035 7.437q-1.754.912-4.07.912-2.665 0-4.84-2.455t-2.175-6.595v-19.154h-4.981v-6.945h4.981v-9.893l7.226-3.578v13.47h5.964v6.806h-5.964v18.452q0 2.806 2.105 2.947 1.754.07 3.789-1.404m14.032-36.482q0 1.613-1.123 2.736-1.122 1.052-2.666 1.052-1.473 0-2.666-1.122-1.123-1.193-1.123-2.666 0-1.474 1.123-2.596 1.193-1.193 2.666-1.193t2.596 1.193q1.193 1.122 1.193 2.596m.07 43.99h-7.648V160.68h7.648zm39.008-34.308-13.33 34.307h-6.595l-13.19-34.307h7.928l8.56 23.082 8.278-23.082zm31.853 20.276h-20.206q0 3.297 1.754 5.472 1.754 2.105 4.56 2.035 3.929.14 6.034-3.438l6.665 2.736q-3.508 7.858-12.559 8.068-6.384 0-10.313-4.7-3.859-4.7-3.859-13.47 0-7.227 3.719-12.49 3.788-5.331 10.453-5.331 6.244 0 9.963 4.91 3.789 4.912 3.789 16.208m-7.508-6.876q.07-2.947-1.683-5.122-1.684-2.174-4.56-2.174-3.088-.07-4.912 2.315-1.824 2.315-1.684 4.981zm57.882 20.907h-7.227v-1.122q-2.736 1.964-6.104 2.035-5.612-.07-9.33-3.158-3.649-3.157-3.649-9.12 0-5.122 3.368-8.56 3.437-3.508 9.26-3.437 3.228 0 6.034.771.14-5.121-5.191-5.612-4.56-.14-8.209 2.525l-3.718-5.683q5.051-3.578 11.716-3.788 5.473 0 9.191 3.157 3.789 3.087 3.859 9.05zm-7.858-7.927v-7.718q-3.087-.842-6.174-.842-2.456 0-4.07 1.614-1.613 1.613-1.543 3.648 0 2.105 1.614 4 1.684 1.893 4.49 1.893 3.017 0 5.683-2.595m29.046 8.77q-3.649 0-6.595-2.035v14.453l-7.437 3.718v-51.848h7.437v2.175q2.245-2.385 6.454-2.455 14.173.28 14.173 18.522 0 17.47-14.032 17.47m6.735-17.54q0-10.805-6.876-11.226-4.28 0-6.314 3.438v15.435q2.596 3.368 6.525 3.297 6.595-.07 6.665-10.944m28.695 17.54q-3.648 0-6.595-2.035v14.453l-7.437 3.718v-51.848h7.437v2.175q2.245-2.385 6.455-2.455 14.172.28 14.172 18.522 0 17.47-14.032 17.47m6.735-17.54q0-10.805-6.875-11.226-4.28 0-6.315 3.438v15.435q2.596 3.368 6.525 3.297 6.595-.07 6.665-10.944m38.728 7.436q-.07 4.49-3.508 7.297-3.438 2.736-9.471 2.806-6.876-.07-12.629-5.262l4.911-4.91q4.28 3.367 7.718 3.437 2.455.07 4.139-.982 1.754-1.123 1.684-2.736.07-1.614-1.544-3.017-1.613-1.403-5.191-2.807-5.192-1.753-7.578-4.35-2.385-2.595-2.385-6.033-.21-3.438 2.806-6.385 3.087-3.016 8.069-3.016 7.577.14 12.558 5.402l-4.7 4.7q-3.438-3.157-7.718-3.297-1.754 0-2.806.772-.983.701-1.053 1.964-.07 1.123.772 1.824.912.702 4.42 2.035 4.981 1.544 8.209 4.49 3.297 2.947 3.297 8.068" aria-label="break addictive apps" style="font-size:64.3882px;font-family:&quot;Highway Gothic&quot;;-inkscape-font-specification:&quot;Highway Gothic&quot;;fill:#cfcfcf;fill-opacity:1;stroke-width:.730823"/></svg>