<svg xmlns="http://www.w3.org/2000/svg" xml:space="preserve" width="2122.9" height="482.68" viewBox="0 0 802.41 180.57"><g transform="translate(-17.872 -89.708)"><rect width="132.73" height="132.73" x="135.41" y="-17.353" fill="#f6fa41" stroke="#000" stroke-linejoin="round" stroke-width="8.153" ry="19.419" style="paint-order:normal" transform="scale(.98476 1.015)rotate(45)"/><path d="M105.74 159.07c-27.314 0-33.122 11.146-35.225 17.018-1.542 2.67-1.651 2.996-5.636 2.996H49.56c-2.288 0-3.645 1.33-3.645 3.644v3.758c0 2.287 1.357 3.644 3.644 3.644h113.63c2.288 0 3.645-1.412 3.645-3.644v-3.758c0-2.288-1.357-3.644-3.645-3.644H147.99c-3.867 0-3.798-.12-5.338-2.787-2.47-5.762-9.268-17.228-36.914-17.228z" style="paint-order:normal" transform="translate(0 -3.225)"/><text xml:space="preserve" x="229.166" y="189.686" fill="none" stroke-linejoin="round" stroke-width="8.151" font-size="4.536" transform="translate(0 -3.225)"><tspan x="229.166" y="189.686">SPEEDBUM</tspan></text><text xml:space="preserve" x="225.727" y="243.448" fill="none" stroke-linejoin="round" stroke-width="20.225" font-family="'A Pompadour Bold Sample'" font-size="180.06" style="font-variant-caps:normal;font-variant-east-asian:normal;font-variant-ligatures:normal;font-variant-numeric:normal" transform="translate(0 -3.225)"><tspan x="225.727" y="243.448" fill="#000" font-family="'Highway Gothic Condensed'" style="font-variant-caps:normal;font-variant-east-asian:normal;font-variant-ligatures:normal;font-variant-numeric:normal">SPEEDBUMP</tspan></text></g></svg>
