<svg xmlns="http://www.w3.org/2000/svg" xml:space="preserve" width="2122.9" height="482.68" viewBox="0 0 802.41 180.57"><path d="M154.829-17.353h93.892A19.377 19.377 0 0 1 268.14 2.066v93.892a19.377 19.377 0 0 1-19.419 19.419h-93.892a19.377 19.377 0 0 1-19.419-19.419V2.066a19.377 19.377 0 0 1 19.419-19.419z" style="fill:#f6fa41;stroke:#000;stroke-width:8.153;stroke-linejoin:round" transform="scale(.98476 1.015)rotate(45 97.613 -66.098)"/><path d="M105.74 159.07c-27.314 0-33.122 11.146-35.225 17.018-1.542 2.67-1.651 2.996-5.636 2.996H49.56c-2.288 0-3.645 1.33-3.645 3.644v3.758c0 2.287 1.357 3.644 3.644 3.644h113.63c2.288 0 3.645-1.412 3.645-3.644v-3.758c0-2.288-1.357-3.644-3.645-3.644H147.99c-3.867 0-3.798-.12-5.338-2.787-2.47-5.762-9.268-17.228-36.914-17.228z" style="paint-order:normal" transform="translate(-17.872 -92.933)"/><path d="M231.443 188.82q0 .43-.313.671-.313.24-.844.24-.272 0-.503-.04-.231-.041-.386-.114v-.39q.164.073.404.132.245.059.504.059.362 0 .544-.141.186-.14.186-.381 0-.159-.068-.268t-.236-.2q-.163-.095-.458-.199-.413-.15-.626-.367-.209-.218-.209-.594 0-.259.132-.44.131-.186.363-.286.235-.1.54-.1.267 0 .49.05t.403.131l-.127.35q-.168-.073-.367-.123-.195-.05-.409-.05-.304 0-.458.132-.154.127-.154.34 0 .163.068.272t.222.195.418.186q.285.105.48.227.2.118.3.286.104.168.104.422m1.51-2.373q.636 0 .926.25t.29.703q0 .267-.122.503-.118.232-.404.377-.281.145-.767.145h-.371v1.261h-.409v-3.239zm-.036.35h-.413v1.279h.327q.463 0 .69-.15t.226-.508q0-.313-.2-.467-.199-.154-.63-.154m3.733 2.889h-1.81v-3.239h1.81v.359h-1.401v1.011h1.32v.354h-1.32v1.157h1.401zm2.522 0h-1.81v-3.239h1.81v.359h-1.401v1.011h1.32v.354h-1.32v1.157h1.401zm3.307-1.651q0 .82-.449 1.238-.444.413-1.243.413h-.902v-3.239h.997q.49 0 .849.182.358.181.553.535.195.35.195.87m-.43.013q0-.648-.323-.948-.317-.303-.903-.303h-.53v2.54h.44q1.315 0 1.315-1.289m2.072-1.6q.608 0 .916.18.313.178.313.622 0 .286-.158.476-.16.186-.458.24v.024q.204.031.367.117.168.087.263.245.095.16.095.413 0 .44-.304.68-.299.241-.82.241h-1.14v-3.239zm.082 1.378q.417 0 .571-.131.155-.136.155-.4 0-.267-.191-.38-.186-.118-.599-.118h-.535v1.03zm-.599.34v1.175h.653q.431 0 .599-.168.168-.167.168-.44 0-.254-.177-.408-.172-.159-.622-.159zm5.003.377q0 .336-.136.608-.136.267-.417.426-.277.154-.708.154-.603 0-.92-.326-.314-.331-.314-.871v-2.087h.409v2.1q0 .395.208.613.214.218.64.218.44 0 .635-.232.2-.236.2-.603v-2.096h.403zm2.282 1.143-1.066-2.84h-.018q.013.141.022.381.01.236.01.495v1.964h-.377v-3.239h.603l.998 2.654h.018l1.016-2.654h.6v3.239h-.405v-1.991q0-.236.01-.468l.022-.376h-.018l-1.08 2.835z" aria-label="SPEEDBUMP" style="font-size:4.536px;fill:none;stroke-width:8.151;stroke-linejoin:round" transform="translate(-17.872 -92.933)"/><path d="M284.247 216.8q0 11.883-6.303 20.346-6.122 8.463-19.806 8.463-12.965 0-19.807-9.003-6.662-9.003-7.202-23.228h16.025q.36 16.025 10.984 16.565 9.543-.72 9.723-13.144.36-7.923-8.463-20.887-8.643-12.964-15.485-21.427-5.042-6.302-7.562-12.964-2.341-6.843-2.341-12.424 0-10.984 6.302-19.627 6.482-8.643 18.006-8.643 9.903 0 17.466 7.743 7.562 7.742 7.742 20.527h-15.665q-.54-12.785-9.003-12.605-8.283.18-8.283 12.424-.18 4.142 1.98 8.643 2.162 4.502 6.123 9.003 12.964 15.125 19.266 27.37 6.303 12.064 6.303 22.867m66.982-60.14q0 13.324-8.103 21.966t-19.807 8.463h-9.003v56.359h-15.125v-120.64h23.588q12.064 0 20.167 8.823 8.283 8.643 8.283 25.028m-15.665-.721q0-9.003-3.782-13.145-3.6-4.321-9.723-4.321h-7.743v32.59h9.003q5.762-.54 9.003-4.68 3.242-4.142 3.242-10.444m77.605 87.509h-46.095v-120.64h44.475v15.665h-29.35v30.97h19.627v16.026h-19.627v42.314h30.97zm58.52 0h-46.095v-120.64h44.475v15.665h-29.35v30.97h19.626v16.026H440.72v42.314h30.97zm66.802-60.32q0 29.71-6.662 45.015-6.482 15.305-20.527 15.305h-24.848v-120.64h24.848q14.045 0 20.527 13.684 6.663 13.505 6.663 46.636m-15.125 0q-.36-30.25-4.14-37.453-3.782-7.382-9.904-7.202h-7.743v89.31h7.743q5.942.18 9.903-9.003t4.141-35.652m81.748 25.208q0 18.546-7.563 26.83-7.562 8.282-19.266 8.282h-25.029v-120.64h24.309q11.523 0 18.186 8.283 6.842 8.282 6.842 23.948 0 15.485-7.563 24.308 10.084 10.983 10.084 28.99m-17.286-54.018q0-6.662-2.52-10.803-2.522-4.322-7.023-5.042H568.2v32.951h9.904q5.041-.54 7.382-5.402 2.341-4.861 2.341-11.704m1.8 54.018q.36-8.282-3.06-14.044-3.242-5.942-8.463-5.942H568.2v39.433h10.264q4.681-.36 7.742-5.402 3.242-5.222 3.422-14.045m83.908 5.582q0 11.704-3.78 18.906-6.843 12.785-21.968 12.785-18.006 0-24.128-16.566-2.16-5.762-2.16-15.125v-91.11h15.124v93.09q0 14.046 11.164 14.046 10.443 0 10.443-14.045v-93.091h15.305zm77.606 29.53h-15.125v-71.484l-14.404 45.195-14.945-45.195v71.484h-15.125v-120.64h13.144l16.926 49.156 16.205-49.156h13.324zm69.144-86.789q0 13.325-8.103 21.967-8.103 8.643-19.807 8.463h-9.003v56.359h-15.125v-120.64h23.588q12.064 0 20.167 8.823 8.283 8.643 8.283 25.028m-15.666-.72q0-9.003-3.78-13.145-3.602-4.321-9.724-4.321h-7.743v32.59h9.003q5.762-.54 9.003-4.68 3.241-4.142 3.241-10.444" aria-label="SPEEDBUMP" style="font-size:180.06px;font-family:&quot;Highway Gothic Condensed&quot;;stroke-width:20.225;stroke-linejoin:round" transform="translate(-17.872 -92.933)"/></svg>
