<?xml version="1.0" encoding="UTF-8" standalone="no"?>
<svg
   xml:space="preserve"
   width="2231.532"
   height="597.10199"
   viewBox="0 0 843.471 223.375"
   version="1.1"
   id="svg5"
   xmlns="http://www.w3.org/2000/svg"
   xmlns:svg="http://www.w3.org/2000/svg"><defs
     id="defs5" /><path
     d="m 126.44025,11.10619 80.95286,83.439148 a 23.627142,24.352721 0 0 1 0,34.513312 l -80.95286,83.43914 a 23.627142,24.352721 0 0 1 -33.485612,0 L 12.001776,129.05865 a 23.627142,24.352721 0 0 1 0,-34.513312 L 92.954638,11.10619 a 23.627142,24.352721 0 0 1 33.485612,0 z"
     style="fill:#f6fa41;stroke:#000000;stroke-width:10.0926;stroke-linejoin:round"
     id="path1" /><path
     d="m 108.91119,81.902179 c -33.818681,0 -41.010089,13.800866 -43.614002,21.071521 -1.909289,3.30596 -2.044252,3.70961 -6.978439,3.70961 H 39.349678 c -2.83174,0 -4.511964,1.6468 -4.511964,4.51197 v 4.65312 c 0,2.83174 1.680224,4.51196 4.511964,4.51196 H 180.04521 c 2.83298,0 4.5132,-1.74832 4.5132,-4.51196 v -4.65312 c 0,-2.83298 -1.68022,-4.51197 -4.5132,-4.51197 h -18.82049 c -4.78684,0 -4.70141,-0.14858 -6.60822,-3.45083 -3.05833,-7.134452 -11.47555,-21.331539 -45.70655,-21.331539 z"
     style="stroke-width:1.23819;paint-order:normal"
     id="path2" /><path
     d="m 254.628,108.378 q 0,0.43 -0.313,0.671 -0.313,0.24 -0.844,0.24 -0.272,0 -0.503,-0.04 -0.231,-0.04 -0.386,-0.114 v -0.39 q 0.164,0.073 0.404,0.132 0.245,0.06 0.504,0.06 0.362,0 0.544,-0.142 0.186,-0.14 0.186,-0.38 0,-0.16 -0.068,-0.269 -0.068,-0.109 -0.236,-0.2 -0.163,-0.095 -0.458,-0.199 -0.413,-0.15 -0.626,-0.367 -0.21,-0.218 -0.21,-0.594 0,-0.259 0.133,-0.44 0.13,-0.186 0.363,-0.286 0.235,-0.1 0.54,-0.1 0.267,0 0.49,0.05 0.223,0.05 0.403,0.131 l -0.127,0.35 q -0.168,-0.073 -0.367,-0.123 -0.195,-0.05 -0.41,-0.05 -0.303,0 -0.457,0.132 -0.154,0.127 -0.154,0.34 0,0.163 0.068,0.272 0.068,0.109 0.222,0.195 0.154,0.086 0.418,0.186 0.285,0.105 0.48,0.227 0.2,0.118 0.3,0.286 0.104,0.168 0.104,0.422 m 1.51,-2.373 q 0.636,0 0.926,0.25 0.29,0.25 0.29,0.703 0,0.267 -0.122,0.503 -0.118,0.232 -0.404,0.377 -0.281,0.145 -0.767,0.145 h -0.371 v 1.261 h -0.41 v -3.239 z m -0.036,0.35 h -0.413 v 1.28 h 0.327 q 0.463,0 0.69,-0.15 0.227,-0.15 0.226,-0.509 0,-0.313 -0.2,-0.467 -0.2,-0.154 -0.63,-0.154 m 3.733,2.89 h -1.81 v -3.24 h 1.81 v 0.36 h -1.401 v 1.01 h 1.32 v 0.354 h -1.32 v 1.157 h 1.4 z m 2.522,0 h -1.81 v -3.24 h 1.81 v 0.36 h -1.401 v 1.01 h 1.32 v 0.354 h -1.32 v 1.157 h 1.4 z m 3.307,-1.652 q 0,0.82 -0.45,1.238 -0.443,0.413 -1.242,0.413 h -0.902 v -3.239 h 0.997 q 0.49,0 0.849,0.182 0.358,0.181 0.553,0.535 0.195,0.35 0.195,0.87 m -0.43,0.013 q 0,-0.648 -0.323,-0.948 -0.317,-0.303 -0.903,-0.303 h -0.53 v 2.54 h 0.44 q 1.315,0 1.315,-1.289 m 2.072,-1.6 q 0.608,0 0.916,0.18 0.313,0.178 0.313,0.622 0,0.286 -0.158,0.476 -0.16,0.186 -0.458,0.24 v 0.024 q 0.204,0.031 0.367,0.117 0.168,0.087 0.263,0.245 0.095,0.16 0.095,0.413 0,0.44 -0.304,0.68 -0.3,0.241 -0.82,0.241 h -1.14 v -3.239 z m 0.082,1.378 q 0.417,0 0.57,-0.13 0.156,-0.137 0.156,-0.4 0,-0.268 -0.191,-0.38 -0.186,-0.119 -0.6,-0.119 h -0.534 v 1.03 z m -0.6,0.34 v 1.175 h 0.654 q 0.43,0 0.599,-0.168 0.168,-0.167 0.168,-0.44 0,-0.254 -0.177,-0.408 -0.172,-0.159 -0.622,-0.159 z m 5.004,0.377 q 0,0.336 -0.136,0.608 -0.136,0.267 -0.417,0.426 -0.277,0.154 -0.708,0.154 -0.603,0 -0.92,-0.326 -0.314,-0.33 -0.314,-0.87 v -2.088 h 0.409 v 2.1 q 0,0.395 0.208,0.613 0.214,0.218 0.64,0.218 0.44,0 0.635,-0.232 0.2,-0.236 0.2,-0.603 v -2.096 h 0.403 z m 2.282,1.143 -1.066,-2.84 h -0.018 q 0.013,0.141 0.022,0.381 0.01,0.236 0.01,0.495 v 1.964 h -0.377 v -3.239 h 0.603 l 0.998,2.654 h 0.018 l 1.016,-2.654 h 0.6 v 3.24 h -0.405 v -1.992 q 0,-0.236 0.01,-0.468 l 0.022,-0.376 h -0.018 l -1.08,2.835 z"
     aria-label="SPEEDBUMP"
     style="font-size:4.536px;fill:none;stroke-width:8.151;stroke-linejoin:round"
     id="path3" /><path
     d="m 307.432,107.611 q 0,11.883 -6.303,20.346 -6.122,8.463 -19.806,8.463 -12.965,0 -19.807,-9.003 -6.662,-9.003 -7.202,-23.228 h 16.025 q 0.36,16.025 10.984,16.565 9.543,-0.72 9.723,-13.144 0.36,-7.923 -8.463,-20.887 -8.643,-12.964 -15.485,-21.427 -5.042,-6.302 -7.562,-12.964 -2.341,-6.843 -2.341,-12.424 0,-10.984 6.302,-19.627 6.482,-8.643 18.006,-8.643 9.903,0 17.466,7.743 7.562,7.742 7.742,20.527 h -15.665 q -0.54,-12.785 -9.003,-12.605 -8.283,0.18 -8.283,12.424 -0.18,4.142 1.98,8.643 2.162,4.502 6.123,9.003 12.964,15.125 19.266,27.37 6.303,12.064 6.303,22.867 m 66.982,-60.14 q 0,13.324 -8.103,21.966 -8.103,8.642 -19.807,8.464 H 337.5 v 56.36 H 322.375 V 13.618 h 23.588 q 12.064,0 20.167,8.822 8.283,8.643 8.283,25.028 m -15.665,-0.72 q 0,-9.004 -3.782,-13.146 -3.6,-4.32 -9.723,-4.32 H 337.5 v 32.59 h 9.003 q 5.762,-0.54 9.003,-4.68 3.242,-4.143 3.242,-10.445 m 77.605,87.51 H 390.258 V 13.617 h 44.475 v 15.664 h -29.35 v 30.97 h 19.627 v 16.026 h -19.627 v 42.314 h 30.97 z m 58.52,0 H 448.778 V 13.617 h 44.475 v 15.664 h -29.35 v 30.97 h 19.626 v 16.026 h -19.625 v 42.314 h 30.97 z m 66.802,-60.32 q 0,29.71 -6.662,45.014 -6.482,15.305 -20.527,15.305 H 509.638 V 13.617 h 24.848 q 14.045,0 20.527,13.684 6.663,13.505 6.663,46.636 m -15.125,0 q -0.36,-30.25 -4.14,-37.453 -3.782,-7.382 -9.904,-7.202 h -7.743 v 89.31 h 7.743 q 5.942,0.18 9.903,-9.003 3.96,-9.183 4.14,-35.652 m 81.75,25.208 q 0,18.546 -7.563,26.83 -7.562,8.282 -19.266,8.282 h -25.03 V 13.617 h 24.31 q 11.523,0 18.186,8.283 6.842,8.282 6.842,23.948 0,15.485 -7.563,24.308 Q 628.3,81.14 628.3,99.146 M 611.014,45.128 q 0,-6.662 -2.52,-10.803 -2.522,-4.322 -7.023,-5.042 h -10.086 v 32.951 h 9.904 q 5.04,-0.54 7.382,-5.402 2.34,-4.86 2.34,-11.704 m 1.8,54.018 q 0.36,-8.282 -3.06,-14.044 -3.241,-5.942 -8.462,-5.942 h -9.904 v 39.433 h 10.264 q 4.68,-0.36 7.742,-5.402 3.242,-5.222 3.422,-14.045 m 83.908,5.582 q 0,11.704 -3.78,18.906 -6.843,12.785 -21.968,12.785 -18.006,0 -24.128,-16.566 -2.16,-5.762 -2.16,-15.125 v -91.11 h 15.124 v 93.09 q 0,14.046 11.164,14.046 10.443,0 10.443,-14.045 V 13.62 h 15.305 z m 77.606,29.53 H 759.202 V 62.774 l -14.404,45.195 -14.945,-45.195 v 71.484 H 714.728 V 13.618 h 13.144 l 16.926,49.156 16.205,-49.156 h 13.324 z M 843.47,47.47 q 0,13.325 -8.103,21.967 -8.103,8.643 -19.807,8.463 h -9.003 v 56.36 H 791.432 V 13.618 h 23.588 q 12.064,0 20.167,8.822 8.283,8.643 8.283,25.028 m -15.666,-0.72 q 0,-9.003 -3.78,-13.145 -3.602,-4.32 -9.724,-4.32 h -7.743 v 32.59 h 9.003 q 5.762,-0.54 9.003,-4.68 3.24,-4.143 3.24,-10.445"
     aria-label="SPEEDBUMP"
     style="font-size:180.06px;font-family:'Highway Gothic Condensed';fill:#ffffff;stroke-width:20.225;stroke-linejoin:round"
     id="path4" /><path
     d="m 293.79711,198.28026 h -8.34666 l -4.91856,-14.01046 h -15.57545 l -4.91857,14.01046 h -8.42118 l 17.14045,-49.93088 h 7.89952 z m -16.09712,-22.05902 -4.91857,-14.01045 -5.06761,14.01045 z m 36.29301,22.9533 q -3.87524,0 -7.00523,-2.16118 v 15.35188 l -7.89951,3.94975 v -55.07301 h 7.89951 v 2.31024 q 2.38476,-2.53381 6.85618,-2.60833 15.05379,0.29809 15.05379,19.67425 0,18.5564 -14.90474,18.5564 z m 7.15427,-18.63092 q 0,-11.47665 -7.30332,-11.92379 -4.54595,0 -6.70713,3.65166 v 16.39521 q 2.75737,3.57714 6.9307,3.50262 7.00523,-0.0745 7.07975,-11.6257 z m 30.48013,18.63092 q -3.87523,0 -7.00523,-2.16118 v 15.35188 l -7.89951,3.94975 v -55.07301 h 7.89951 v 2.31024 q 2.38476,-2.53381 6.85618,-2.60833 15.05379,0.29809 15.05379,19.67425 0,18.5564 -14.90474,18.5564 z m 7.15427,-18.63092 q 0,-11.47665 -7.30332,-11.92379 -4.54594,0 -6.70713,3.65166 v 16.39521 q 2.75738,3.57714 6.9307,3.50262 7.00523,-0.0745 7.07975,-11.6257 z m 31.00179,-2.75738 h -16.61878 v -8.04856 h 16.61878 z m 28.84068,-18.10926 q -2.38476,-4.39689 -7.37784,-4.47142 -2.90643,0 -4.84404,1.78857 -1.93762,1.78857 -1.8631,4.24785 0,1.78857 1.71405,3.20452 1.78857,1.41595 5.58928,2.01214 9.01736,1.565 13.04164,6.11094 4.09881,4.47142 4.09881,10.28427 0,6.40904 -4.84404,11.40213 -4.84405,4.91856 -12.07284,4.91856 -11.47665,-0.14904 -17.06593,-11.62569 l 7.52689,-3.80071 q 3.50262,7.2288 9.68808,7.2288 3.57714,0.0745 6.18547,-2.45929 2.60833,-2.60833 2.60833,-6.03642 0.0745,-2.31023 -2.01214,-4.54594 -2.08666,-2.31024 -7.37785,-3.27904 -7.15427,-1.04334 -10.95498,-4.32238 -3.80071,-3.35356 -3.80071,-7.97403 -0.14905,-5.51476 3.87523,-10.13523 4.02428,-4.69499 10.65689,-4.69499 9.31546,0.22357 13.86141,8.7938 z m 45.16134,38.60328 h -7.75046 v -1.86309 q -3.27904,2.75737 -8.71927,2.75737 -6.33452,0 -9.46451,-4.32237 -3.13,-4.32238 -3.13,-10.0607 v -22.9533 h 7.67594 v 22.80425 q -0.14904,2.8319 1.8631,5.14214 2.01214,2.23571 5.06761,2.08666 3.20452,0 4.84404,-1.86309 1.71404,-1.86309 1.71404,-5.36571 v -22.80425 h 7.89951 z m 5.96192,-18.40735 q 0,-7.67595 2.90642,-12.44546 3.87523,-6.48356 12.29641,-6.48356 10.80594,0 13.86141,9.16641 l -7.37785,2.98095 q -1.63952,-4.76952 -6.55808,-4.69499 -4.02428,0 -5.81285,4.32237 -1.2669,3.05547 -1.2669,7.15428 0,4.0988 1.2669,7.15427 1.78857,4.32237 5.81285,4.32237 4.91856,0.0745 6.55808,-4.69499 l 7.37785,2.98095 q -3.05547,9.16641 -13.86141,9.16641 -8.42118,0 -12.29641,-6.48356 -2.90642,-4.76951 -2.90642,-12.44545 z m 35.02615,-28.46806 7.75046,-3.87523 v 16.17164 q 3.27905,-2.75737 8.71928,-2.75737 6.33451,0 9.46451,4.32237 3.12999,4.32237 3.12999,10.0607 v 22.9533 h -7.67594 v -22.80425 q 0.14905,-2.8319 -1.86309,-5.06761 -2.01214,-2.31024 -5.06761,-2.16119 -3.20452,0 -4.91857,1.86309 -1.63952,1.86309 -1.63952,5.36571 v 22.80425 h -7.89951 z m 53.20994,38.90137 -2.16119,7.89951 q -1.86309,0.96881 -4.32237,0.96881 -2.83191,0 -5.14214,-2.60833 -2.31023,-2.60833 -2.31023,-7.00522 v -20.34497 h -5.29119 v -7.37785 h 5.29119 v -10.50784 l 7.67594,-3.80071 v 14.30855 h 6.33451 v 7.2288 h -6.33451 v 19.59973 q 0,2.98095 2.23571,3.13 1.86309,0.0745 4.02428,-1.49048 z m 39.57206,8.86832 q -3.87524,0 -7.00523,-2.16118 v 1.2669 h -7.89951 v -46.80088 l 7.89951,-3.94976 v 16.0226 q 2.38476,-2.53381 6.85618,-2.60833 15.05378,0.29809 15.05378,19.67425 0,18.5564 -14.90473,18.5564 z m 7.15427,-18.63092 q 0,-11.47665 -7.30332,-11.92379 -4.54595,0 -6.70713,3.65166 v 16.39521 q 2.75737,3.57714 6.9307,3.50262 7.00523,-0.0745 7.07975,-11.6257 z m 44.26701,2.8319 H 627.514 q 0,3.50261 1.8631,5.81285 1.86309,2.23571 4.84404,2.16118 4.17332,0.14905 6.40903,-3.65166 l 7.07976,2.90643 q -3.72619,8.34665 -13.33975,8.57022 -6.78165,0 -10.95498,-4.99309 -4.0988,-4.99308 -4.0988,-14.30854 0,-7.67595 3.94975,-13.26522 4.02428,-5.6638 11.10403,-5.6638 6.63261,0 10.58237,5.21665 4.02428,5.21666 4.02428,17.21498 z m -7.97404,-7.30332 q 0.0745,-3.13 -1.78857,-5.44023 -1.78856,-2.31024 -4.84404,-2.31024 -3.27904,-0.0745 -5.21665,2.45928 -1.93762,2.45929 -1.78857,5.29119 z m 40.24282,12.37093 q -0.0745,4.76952 -3.72619,7.75046 -3.65166,2.90643 -10.0607,2.98095 -7.30332,-0.0745 -13.41426,-5.58927 l 5.21666,-5.21666 q 4.54594,3.57713 8.1976,3.65166 2.60833,0.0745 4.3969,-1.04333 1.86309,-1.19238 1.78857,-2.90643 0.0745,-1.71404 -1.63952,-3.20452 -1.71405,-1.49047 -5.51476,-2.98095 -5.51475,-1.86309 -8.04855,-4.62046 -2.53381,-2.75738 -2.53381,-6.40904 -0.22357,-3.65166 2.98095,-6.78166 3.27904,-3.20452 8.57022,-3.20452 8.04856,0.14905 13.33974,5.73833 l -4.99308,4.99308 q -3.65166,-3.35356 -8.19761,-3.50261 -1.86309,0 -2.98095,0.81976 -1.04333,0.74524 -1.11785,2.08667 -0.0745,1.19237 0.81976,1.93761 0.96881,0.74524 4.69499,2.16119 5.29118,1.63952 8.71927,4.76952 3.50262,3.12999 3.50262,8.57022 z m 15.35182,-36.88923 q 0,1.71405 -1.19238,2.90642 -1.19238,1.11786 -2.8319,1.11786 -1.56499,0 -2.8319,-1.19238 -1.19238,-1.2669 -1.19238,-2.8319 0,-1.565 1.19238,-2.75738 1.26691,-1.2669 2.8319,-1.2669 1.565,0 2.75738,1.2669 1.2669,1.19238 1.2669,2.75738 z m 0.0745,46.72636 h -8.12309 v -36.44209 h 8.12309 z m 37.63452,-14.90474 h -21.46283 q 0,3.50261 1.8631,5.81285 1.86309,2.23571 4.84404,2.16118 4.17332,0.14905 6.40904,-3.65166 l 7.07975,2.90643 q -3.72619,8.34665 -13.33975,8.57022 -6.78165,0 -10.95498,-4.99309 -4.0988,-4.99308 -4.0988,-14.30854 0,-7.67595 3.94975,-13.26522 4.02428,-5.6638 11.10403,-5.6638 6.63261,0 10.58237,5.21665 4.02428,5.21666 4.02428,17.21498 z m -7.97404,-7.30332 q 0.0745,-3.13 -1.78856,-5.44023 -1.78857,-2.31024 -4.84405,-2.31024 -3.27904,-0.0745 -5.21665,2.45928 -1.93762,2.45929 -1.78857,5.29119 z m 29.58596,23.10234 q -14.90474,0 -14.90474,-18.5564 0,-19.37616 15.05379,-19.67425 4.47142,0.0745 6.85618,2.60833 v -2.31024 h 7.89951 v 35.77138 Q 770.30147,211.62 757.4834,216.31499 l -3.27905,-6.55808 q 8.94285,-3.57714 8.71928,-12.74355 -3.13,2.16118 -7.00523,2.16118 z m -7.15428,-18.63092 q 0.0745,11.55117 7.07976,11.6257 4.17332,0.0745 6.9307,-3.50262 v -16.39521 q -2.16119,-3.65166 -6.70713,-3.65166 -7.30333,0.44714 -7.30333,11.92379 z m 58.57556,2.8319 h -21.46282 q 0,3.50261 1.86309,5.81285 1.86309,2.23571 4.84404,2.16118 4.17333,0.14905 6.40904,-3.65166 l 7.07975,2.90643 q -3.72618,8.34665 -13.33974,8.57022 -6.78166,0 -10.95499,-4.99309 -4.0988,-4.99308 -4.0988,-14.30854 0,-7.67595 3.94976,-13.26522 4.02428,-5.6638 11.10403,-5.6638 6.63261,0 10.58236,5.21665 4.02428,5.21666 4.02428,17.21498 z m -7.97403,-7.30332 q 0.0745,-3.13 -1.78857,-5.44023 -1.78857,-2.31024 -4.84404,-2.31024 -3.27904,-0.0745 -5.21666,2.45928 -1.93762,2.45929 -1.78857,5.29119 z m 13.93598,-14.68117 h 7.75046 v 2.31023 q 3.27904,-2.75737 8.71927,-2.75737 6.33452,0 9.46451,4.32237 3.13,4.32237 3.13,10.0607 v 22.9533 h -7.67594 v -22.80425 q 0.14904,-2.8319 -1.8631,-5.06761 -2.01214,-2.31024 -5.06761,-2.16119 -3.20452,0 -4.91856,1.86309 -1.63952,1.86309 -1.63952,5.36571 v 22.80425 h -7.89951 z"
     id="text5"
     style="font-size:74.5237px;font-family:'Highway Gothic';-inkscape-font-specification:'Highway Gothic';fill:#cfcfcf;stroke-width:0.776289"
     aria-label="App-Sucht besiegen" /></svg>
