<?xml version="1.0" encoding="UTF-8" standalone="no"?>
<svg
   xml:space="preserve"
   width="2231.532"
   height="597.10199"
   viewBox="0 0 843.471 223.375"
   version="1.1"
   id="svg5"
   xmlns="http://www.w3.org/2000/svg"
   xmlns:svg="http://www.w3.org/2000/svg"><defs
     id="defs5" /><path
     d="m 126.44025,11.10619 80.95286,83.439148 a 23.627142,24.352721 0 0 1 0,34.513312 l -80.95286,83.43914 a 23.627142,24.352721 0 0 1 -33.485612,0 L 12.001776,129.05865 a 23.627142,24.352721 0 0 1 0,-34.513312 L 92.954638,11.10619 a 23.627142,24.352721 0 0 1 33.485612,0 z"
     style="fill:#f6fa41;stroke:#000000;stroke-width:10.0926;stroke-linejoin:round"
     id="path1" /><path
     d="m 108.91119,81.902179 c -33.818681,0 -41.010089,13.800866 -43.614002,21.071521 -1.909289,3.30596 -2.044252,3.70961 -6.978439,3.70961 H 39.349678 c -2.83174,0 -4.511964,1.6468 -4.511964,4.51197 v 4.65312 c 0,2.83174 1.680224,4.51196 4.511964,4.51196 H 180.04521 c 2.83298,0 4.5132,-1.74832 4.5132,-4.51196 v -4.65312 c 0,-2.83298 -1.68022,-4.51197 -4.5132,-4.51197 h -18.82049 c -4.78684,0 -4.70141,-0.14858 -6.60822,-3.45083 -3.05833,-7.134452 -11.47555,-21.331539 -45.70655,-21.331539 z"
     style="stroke-width:1.23819;paint-order:normal"
     id="path2" /><path
     d="m 254.628,108.378 q 0,0.43 -0.313,0.671 -0.313,0.24 -0.844,0.24 -0.272,0 -0.503,-0.04 -0.231,-0.04 -0.386,-0.114 v -0.39 q 0.164,0.073 0.404,0.132 0.245,0.06 0.504,0.06 0.362,0 0.544,-0.142 0.186,-0.14 0.186,-0.38 0,-0.16 -0.068,-0.269 -0.068,-0.109 -0.236,-0.2 -0.163,-0.095 -0.458,-0.199 -0.413,-0.15 -0.626,-0.367 -0.21,-0.218 -0.21,-0.594 0,-0.259 0.133,-0.44 0.13,-0.186 0.363,-0.286 0.235,-0.1 0.54,-0.1 0.267,0 0.49,0.05 0.223,0.05 0.403,0.131 l -0.127,0.35 q -0.168,-0.073 -0.367,-0.123 -0.195,-0.05 -0.41,-0.05 -0.303,0 -0.457,0.132 -0.154,0.127 -0.154,0.34 0,0.163 0.068,0.272 0.068,0.109 0.222,0.195 0.154,0.086 0.418,0.186 0.285,0.105 0.48,0.227 0.2,0.118 0.3,0.286 0.104,0.168 0.104,0.422 m 1.51,-2.373 q 0.636,0 0.926,0.25 0.29,0.25 0.29,0.703 0,0.267 -0.122,0.503 -0.118,0.232 -0.404,0.377 -0.281,0.145 -0.767,0.145 h -0.371 v 1.261 h -0.41 v -3.239 z m -0.036,0.35 h -0.413 v 1.28 h 0.327 q 0.463,0 0.69,-0.15 0.227,-0.15 0.226,-0.509 0,-0.313 -0.2,-0.467 -0.2,-0.154 -0.63,-0.154 m 3.733,2.89 h -1.81 v -3.24 h 1.81 v 0.36 h -1.401 v 1.01 h 1.32 v 0.354 h -1.32 v 1.157 h 1.4 z m 2.522,0 h -1.81 v -3.24 h 1.81 v 0.36 h -1.401 v 1.01 h 1.32 v 0.354 h -1.32 v 1.157 h 1.4 z m 3.307,-1.652 q 0,0.82 -0.45,1.238 -0.443,0.413 -1.242,0.413 h -0.902 v -3.239 h 0.997 q 0.49,0 0.849,0.182 0.358,0.181 0.553,0.535 0.195,0.35 0.195,0.87 m -0.43,0.013 q 0,-0.648 -0.323,-0.948 -0.317,-0.303 -0.903,-0.303 h -0.53 v 2.54 h 0.44 q 1.315,0 1.315,-1.289 m 2.072,-1.6 q 0.608,0 0.916,0.18 0.313,0.178 0.313,0.622 0,0.286 -0.158,0.476 -0.16,0.186 -0.458,0.24 v 0.024 q 0.204,0.031 0.367,0.117 0.168,0.087 0.263,0.245 0.095,0.16 0.095,0.413 0,0.44 -0.304,0.68 -0.3,0.241 -0.82,0.241 h -1.14 v -3.239 z m 0.082,1.378 q 0.417,0 0.57,-0.13 0.156,-0.137 0.156,-0.4 0,-0.268 -0.191,-0.38 -0.186,-0.119 -0.6,-0.119 h -0.534 v 1.03 z m -0.6,0.34 v 1.175 h 0.654 q 0.43,0 0.599,-0.168 0.168,-0.167 0.168,-0.44 0,-0.254 -0.177,-0.408 -0.172,-0.159 -0.622,-0.159 z m 5.004,0.377 q 0,0.336 -0.136,0.608 -0.136,0.267 -0.417,0.426 -0.277,0.154 -0.708,0.154 -0.603,0 -0.92,-0.326 -0.314,-0.33 -0.314,-0.87 v -2.088 h 0.409 v 2.1 q 0,0.395 0.208,0.613 0.214,0.218 0.64,0.218 0.44,0 0.635,-0.232 0.2,-0.236 0.2,-0.603 v -2.096 h 0.403 z m 2.282,1.143 -1.066,-2.84 h -0.018 q 0.013,0.141 0.022,0.381 0.01,0.236 0.01,0.495 v 1.964 h -0.377 v -3.239 h 0.603 l 0.998,2.654 h 0.018 l 1.016,-2.654 h 0.6 v 3.24 h -0.405 v -1.992 q 0,-0.236 0.01,-0.468 l 0.022,-0.376 h -0.018 l -1.08,2.835 z"
     aria-label="SPEEDBUMP"
     style="font-size:4.536px;fill:none;stroke-width:8.151;stroke-linejoin:round"
     id="path3" /><path
     d="m 307.432,107.611 q 0,11.883 -6.303,20.346 -6.122,8.463 -19.806,8.463 -12.965,0 -19.807,-9.003 -6.662,-9.003 -7.202,-23.228 h 16.025 q 0.36,16.025 10.984,16.565 9.543,-0.72 9.723,-13.144 0.36,-7.923 -8.463,-20.887 -8.643,-12.964 -15.485,-21.427 -5.042,-6.302 -7.562,-12.964 -2.341,-6.843 -2.341,-12.424 0,-10.984 6.302,-19.627 6.482,-8.643 18.006,-8.643 9.903,0 17.466,7.743 7.562,7.742 7.742,20.527 h -15.665 q -0.54,-12.785 -9.003,-12.605 -8.283,0.18 -8.283,12.424 -0.18,4.142 1.98,8.643 2.162,4.502 6.123,9.003 12.964,15.125 19.266,27.37 6.303,12.064 6.303,22.867 m 66.982,-60.14 q 0,13.324 -8.103,21.966 -8.103,8.642 -19.807,8.464 H 337.5 v 56.36 H 322.375 V 13.618 h 23.588 q 12.064,0 20.167,8.822 8.283,8.643 8.283,25.028 m -15.665,-0.72 q 0,-9.004 -3.782,-13.146 -3.6,-4.32 -9.723,-4.32 H 337.5 v 32.59 h 9.003 q 5.762,-0.54 9.003,-4.68 3.242,-4.143 3.242,-10.445 m 77.605,87.51 H 390.258 V 13.617 h 44.475 v 15.664 h -29.35 v 30.97 h 19.627 v 16.026 h -19.627 v 42.314 h 30.97 z m 58.52,0 H 448.778 V 13.617 h 44.475 v 15.664 h -29.35 v 30.97 h 19.626 v 16.026 h -19.625 v 42.314 h 30.97 z m 66.802,-60.32 q 0,29.71 -6.662,45.014 -6.482,15.305 -20.527,15.305 H 509.638 V 13.617 h 24.848 q 14.045,0 20.527,13.684 6.663,13.505 6.663,46.636 m -15.125,0 q -0.36,-30.25 -4.14,-37.453 -3.782,-7.382 -9.904,-7.202 h -7.743 v 89.31 h 7.743 q 5.942,0.18 9.903,-9.003 3.96,-9.183 4.14,-35.652 m 81.75,25.208 q 0,18.546 -7.563,26.83 -7.562,8.282 -19.266,8.282 h -25.03 V 13.617 h 24.31 q 11.523,0 18.186,8.283 6.842,8.282 6.842,23.948 0,15.485 -7.563,24.308 Q 628.3,81.14 628.3,99.146 M 611.014,45.128 q 0,-6.662 -2.52,-10.803 -2.522,-4.322 -7.023,-5.042 h -10.086 v 32.951 h 9.904 q 5.04,-0.54 7.382,-5.402 2.34,-4.86 2.34,-11.704 m 1.8,54.018 q 0.36,-8.282 -3.06,-14.044 -3.241,-5.942 -8.462,-5.942 h -9.904 v 39.433 h 10.264 q 4.68,-0.36 7.742,-5.402 3.242,-5.222 3.422,-14.045 m 83.908,5.582 q 0,11.704 -3.78,18.906 -6.843,12.785 -21.968,12.785 -18.006,0 -24.128,-16.566 -2.16,-5.762 -2.16,-15.125 v -91.11 h 15.124 v 93.09 q 0,14.046 11.164,14.046 10.443,0 10.443,-14.045 V 13.62 h 15.305 z m 77.606,29.53 H 759.202 V 62.774 l -14.404,45.195 -14.945,-45.195 v 71.484 H 714.728 V 13.618 h 13.144 l 16.926,49.156 16.205,-49.156 h 13.324 z M 843.47,47.47 q 0,13.325 -8.103,21.967 -8.103,8.643 -19.807,8.463 h -9.003 v 56.36 H 791.432 V 13.618 h 23.588 q 12.064,0 20.167,8.822 8.283,8.643 8.283,25.028 m -15.666,-0.72 q 0,-9.003 -3.78,-13.145 -3.602,-4.32 -9.724,-4.32 h -7.743 v 32.59 h 9.003 q 5.762,-0.54 9.003,-4.68 3.24,-4.143 3.24,-10.445"
     aria-label="SPEEDBUMP"
     style="font-size:180.06px;font-family:'Highway Gothic Condensed';stroke-width:20.225;stroke-linejoin:round"
     id="path4" /><path
     d="m 273.88488,162.30266 -2.40356,6.6613 q -2.0602,-2.0602 -4.18906,-1.99153 -4.60111,0.13735 -4.8758,6.45528 v 20.94533 h -7.41671 v -34.13058 h 7.34803 v 2.47224 q 1.85418,-2.74693 5.35651,-2.74693 3.50234,0.0687 6.18059,2.33489 z m 31.72701,15.24545 q -0.0687,6.93599 -2.74693,11.33108 -3.571,5.97456 -11.2624,6.31793 -7.6914,-0.34337 -11.26241,-6.31793 -2.67825,-4.39509 -2.74693,-11.33108 0.0687,-7.21069 2.74693,-11.60577 3.63968,-5.76855 11.26241,-5.97457 7.62272,0.20602 11.2624,5.97457 2.67826,4.39508 2.74693,11.60577 z m -14.07801,10.36965 q 3.98305,0 5.83723,-3.91437 1.23611,-2.74693 1.23611,-6.38661 0,-3.8457 -1.23611,-6.59263 -1.78551,-3.91437 -5.83723,-3.91437 -3.91437,0 -5.69987,3.91437 -1.23612,2.74693 -1.23612,6.59263 0,3.63968 1.23612,6.38661 2.06019,3.91437 5.69987,3.91437 z m 65.72028,6.45528 h -7.21068 v -21.7694 q 0.0687,-1.99153 -1.71683,-3.91438 -1.71683,-1.99152 -4.25774,-1.92285 -2.47224,0 -4.05172,1.78551 -1.51081,1.7855 -1.44214,4.05172 v 21.7694 h -7.76007 v -21.7694 q 0.0687,-2.12887 -1.64816,-3.98305 -1.71683,-1.92285 -4.25773,-1.85418 -2.26622,0.0687 -3.91438,1.85418 -1.57948,1.71683 -1.64815,3.98305 v 21.7694 h -7.55406 v -34.13058 h 7.41671 v 2.0602 q 3.09029,-2.47224 7.27936,-2.47224 5.69988,0 8.92752,4.73845 3.29631,-4.66978 9.13353,-4.66978 5.01315,0 8.79017,3.8457 3.8457,3.8457 3.91437,8.99619 z m 21.15133,0.82408 q -3.57101,0 -6.45529,-1.99152 v 14.14668 l -7.27936,3.63968 v -50.7495 h 7.27936 v 2.12887 q 2.19755,-2.33489 6.31794,-2.40356 13.87199,0.27469 13.87199,18.12972 0,17.09963 -13.73464,17.09963 z m 6.59262,-17.1683 q 0,-10.57567 -6.72997,-10.98771 -4.18907,0 -6.18059,3.36498 v 15.10811 q 2.54091,3.29631 6.38661,3.22764 6.45528,-0.0687 6.52395,-10.71302 z m 40.79183,2.60958 h -19.77788 q 0,3.22764 1.71683,5.35651 1.71683,2.0602 4.46376,1.99152 3.8457,0.13735 5.9059,-3.36498 l 6.52395,2.67825 q -3.43366,7.6914 -12.2925,7.89742 -6.24926,0 -10.09496,-4.6011 -3.77703,-4.60111 -3.77703,-13.18526 0,-7.07334 3.63968,-12.22383 3.70835,-5.21916 10.23231,-5.21916 6.11191,0 9.75159,4.80712 3.70835,4.80713 3.70835,15.86351 z m -7.34803,-6.72997 q 0.0687,-2.88428 -1.64816,-5.01315 -1.64815,-2.12887 -4.46375,-2.12887 -3.02162,-0.0687 -4.80713,2.26622 -1.7855,2.26622 -1.64815,4.8758 z m 56.65535,20.46461 h -7.07334 v -1.09877 q -2.67826,1.92285 -5.97457,1.99152 -5.49386,-0.0687 -9.13354,-3.09029 -3.571,-3.09029 -3.571,-8.92752 0,-5.01314 3.29631,-8.37813 3.36499,-3.43366 9.06486,-3.36498 3.15897,0 5.9059,0.7554 0.13735,-5.01314 -5.08182,-5.49386 -4.46376,-0.13734 -8.03476,2.47224 l -3.63968,-5.56253 q 4.94447,-3.50233 11.46842,-3.70835 5.35651,0 8.99619,3.09029 3.70836,3.02162 3.77703,8.85884 z m -7.6914,-7.76007 v -7.55405 q -3.02162,-0.82408 -6.04324,-0.82408 -2.40356,0 -3.98305,1.57948 -1.57948,1.57949 -1.51081,3.57101 0,2.0602 1.57949,3.91437 1.64815,1.85418 4.39508,1.85418 2.95295,0 5.56253,-2.54091 z m 28.43073,8.58415 q -3.571,0 -6.45528,-1.99152 v 14.14668 l -7.27936,3.63968 v -50.7495 h 7.27936 v 2.12887 q 2.19754,-2.33489 6.31794,-2.40356 13.87198,0.27469 13.87198,18.12972 0,17.09963 -13.73464,17.09963 z m 6.59263,-17.1683 q 0,-10.57567 -6.72997,-10.98771 -4.18907,0 -6.18059,3.36498 v 15.10811 q 2.54091,3.29631 6.38661,3.22764 6.45528,-0.0687 6.52395,-10.71302 z m 28.08727,17.1683 q -3.571,0 -6.45528,-1.99152 v 14.14668 l -7.27936,3.63968 v -50.7495 h 7.27936 v 2.12887 q 2.19754,-2.33489 6.31794,-2.40356 13.87198,0.27469 13.87198,18.12972 0,17.09963 -13.73464,17.09963 z m 6.59263,-17.1683 q 0,-10.57567 -6.72997,-10.98771 -4.18907,0 -6.18059,3.36498 v 15.10811 q 2.54091,3.29631 6.38661,3.22764 6.45528,-0.0687 6.52395,-10.71302 z m 37.90757,7.27936 q -0.0687,4.39508 -3.43366,7.14201 -3.36498,2.67826 -9.27088,2.74693 -6.72997,-0.0687 -12.36118,-5.15049 l 4.80713,-4.80712 q 4.18906,3.29631 7.55405,3.36498 2.40356,0.0687 4.05172,-0.96142 1.71683,-1.09877 1.64816,-2.67826 0.0687,-1.57948 -1.51081,-2.95294 -1.57949,-1.37347 -5.08182,-2.74693 -5.08182,-1.71683 -7.41671,-4.25774 -2.33489,-2.54091 -2.33489,-5.9059 -0.20602,-3.36498 2.74693,-6.24926 3.02162,-2.95295 7.89742,-2.95295 7.41671,0.13735 12.2925,5.28784 l -4.6011,4.60111 q -3.36499,-3.0903 -7.55405,-3.22765 -1.71683,0 -2.74693,0.75541 -0.96143,0.68673 -1.0301,1.92285 -0.0687,1.09877 0.75541,1.7855 0.89275,0.68673 4.32641,1.99153 4.87579,1.51081 8.03476,4.39508 3.22764,2.88428 3.22764,7.89742 z m 48.75786,9.06486 h -7.07334 v -1.09877 q -2.67825,1.92285 -5.97457,1.99152 -5.49385,-0.0687 -9.13353,-3.09029 -3.57101,-3.09029 -3.57101,-8.92752 0,-5.01314 3.29631,-8.37813 3.36499,-3.43366 9.06487,-3.36498 3.15896,0 5.90589,0.7554 0.13735,-5.01314 -5.08182,-5.49386 -4.46375,-0.13734 -8.03476,2.47224 l -3.63968,-5.56253 q 4.94447,-3.50233 11.46843,-3.70835 5.35651,0 8.99618,3.09029 3.70836,3.02162 3.77703,8.85884 z m -7.6914,-7.76007 v -7.55405 q -3.02162,-0.82408 -6.04324,-0.82408 -2.40356,0 -3.98305,1.57948 -1.57948,1.57949 -1.51081,3.57101 0,2.0602 1.57949,3.91437 1.64815,1.85418 4.39508,1.85418 2.95295,0 5.56253,-2.54091 z m 28.43072,8.58415 q -13.73464,0 -13.73464,-17.09963 0,-17.85503 13.87198,-18.12972 4.1204,0.0687 6.31794,2.40356 v -11.12506 l 7.27936,-3.63968 v 46.76645 h -7.27936 v -1.16744 q -2.88428,1.99152 -6.45528,1.99152 z m -6.59263,-17.1683 q 0.0687,10.64435 6.52396,10.71302 3.84569,0.0687 6.3866,-3.22764 v -15.10811 q -1.99152,-3.36498 -6.18059,-3.36498 -6.72997,0.41204 -6.72997,10.98771 z m 36.05337,-26.71388 q 0,1.57949 -1.09878,2.67826 -1.09877,1.0301 -2.60958,1.0301 -1.44213,0 -2.60958,-1.09877 -1.09877,-1.16745 -1.09877,-2.60959 0,-1.44213 1.09877,-2.5409 1.16745,-1.16745 2.60958,-1.16745 1.44214,0 2.54091,1.16745 1.16745,1.09877 1.16745,2.5409 z m 0.0687,43.0581 h -7.48538 v -33.58119 h 7.48538 z m 7.21076,-16.96228 q 0,-7.07334 2.67826,-11.46842 3.571,-5.97457 11.33108,-5.97457 9.95761,0 12.77321,8.4468 l -6.79864,2.74693 q -1.51082,-4.39509 -6.04325,-4.32641 -3.70835,0 -5.35651,3.98304 -1.16744,2.8156 -1.16744,6.59263 0,3.77703 1.16744,6.59263 1.64816,3.98304 5.35651,3.98304 4.53243,0.0687 6.04325,-4.32641 l 6.79864,2.74693 q -2.8156,8.4468 -12.77321,8.4468 -7.76008,0 -11.33108,-5.97456 -2.67826,-4.39509 -2.67826,-11.46843 z m 48.68931,9.61425 -1.99152,7.27936 q -1.71683,0.89275 -3.98305,0.89275 -2.60958,0 -4.73845,-2.40356 -2.12887,-2.40356 -2.12887,-6.45528 v -18.74779 h -4.8758 v -6.79864 h 4.8758 v -9.68293 l 7.07334,-3.50233 v 13.18526 h 5.83722 v 6.6613 h -5.83722 v 18.06105 q 0,2.74693 2.0602,2.88427 1.71683,0.0687 3.70835,-1.37346 z m 13.73466,-35.71007 q 0,1.57949 -1.09878,2.67826 -1.09877,1.0301 -2.60958,1.0301 -1.44213,0 -2.60958,-1.09877 -1.09877,-1.16745 -1.09877,-2.60959 0,-1.44213 1.09877,-2.5409 1.16745,-1.16745 2.60958,-1.16745 1.44214,0 2.54091,1.16745 1.16745,1.09877 1.16745,2.5409 z m 0.0687,43.0581 h -7.48538 v -33.58119 h 7.48538 z m 38.18238,-33.58119 -13.04791,33.58119 h -6.45528 l -12.91056,-33.58119 h 7.76007 l 8.37813,22.59348 8.10344,-22.59348 z m 30.35349,33.58119 h -7.07334 v -1.09877 q -2.67826,1.92285 -5.97457,1.99152 -5.49386,-0.0687 -9.13354,-3.09029 -3.571,-3.09029 -3.571,-8.92752 0,-5.01314 3.29631,-8.37813 3.36499,-3.43366 9.06486,-3.36498 3.15897,0 5.9059,0.7554 0.13734,-5.01314 -5.08182,-5.49386 -4.46376,-0.13734 -8.03476,2.47224 l -3.63968,-5.56253 q 4.94447,-3.50233 11.46842,-3.70835 5.35651,0 8.99619,3.09029 3.70835,3.02162 3.77703,8.85884 z m -7.6914,-7.76007 v -7.55405 q -3.02162,-0.82408 -6.04324,-0.82408 -2.40357,0 -3.98305,1.57948 -1.57948,1.57949 -1.51081,3.57101 0,2.0602 1.57948,3.91437 1.64816,1.85418 4.39509,1.85418 2.95295,0 5.56253,-2.54091 z m 38.25101,-1.30479 q -0.0687,4.39508 -3.43366,7.14201 -3.36498,2.67826 -9.27088,2.74693 -6.72997,-0.0687 -12.36118,-5.15049 l 4.80713,-4.80712 q 4.18906,3.29631 7.55405,3.36498 2.40356,0.0687 4.05172,-0.96142 1.71683,-1.09877 1.64816,-2.67826 0.0687,-1.57948 -1.51081,-2.95294 -1.57949,-1.37347 -5.08182,-2.74693 -5.08182,-1.71683 -7.41671,-4.25774 -2.33489,-2.54091 -2.33489,-5.9059 -0.20602,-3.36498 2.74693,-6.24926 3.02162,-2.95295 7.89742,-2.95295 7.41671,0.13735 12.2925,5.28784 l -4.6011,4.60111 q -3.36499,-3.0903 -7.55405,-3.22765 -1.71683,0 -2.74693,0.75541 -0.96143,0.68673 -1.0301,1.92285 -0.0687,1.09877 0.75541,1.7855 0.89275,0.68673 4.32641,1.99153 4.87579,1.51081 8.03476,4.39508 3.22764,2.88428 3.22764,7.89742 z"
     id="text5"
     style="font-size:68.6732px;font-family:'Highway Gothic';-inkscape-font-specification:'Highway Gothic';fill:#494949;stroke-width:0.715346"
     aria-label="rompe apps adictivas" /></svg>
