<?xml version="1.0" encoding="UTF-8" standalone="no"?>
<svg
   xml:space="preserve"
   width="2231.532"
   height="597.10199"
   viewBox="0 0 843.471 223.375"
   version="1.1"
   id="svg5"
   xmlns="http://www.w3.org/2000/svg"
   xmlns:svg="http://www.w3.org/2000/svg"><defs
     id="defs5" /><path
     d="m 126.44025,11.10619 80.95286,83.439148 a 23.627142,24.352721 0 0 1 0,34.513312 l -80.95286,83.43914 a 23.627142,24.352721 0 0 1 -33.485612,0 L 12.001776,129.05865 a 23.627142,24.352721 0 0 1 0,-34.513312 L 92.954638,11.10619 a 23.627142,24.352721 0 0 1 33.485612,0 z"
     style="fill:#f6fa41;stroke:#000000;stroke-width:10.0926;stroke-linejoin:round"
     id="path1" /><path
     d="m 108.91119,81.902179 c -33.818681,0 -41.010089,13.800866 -43.614002,21.071521 -1.909289,3.30596 -2.044252,3.70961 -6.978439,3.70961 H 39.349678 c -2.83174,0 -4.511964,1.6468 -4.511964,4.51197 v 4.65312 c 0,2.83174 1.680224,4.51196 4.511964,4.51196 H 180.04521 c 2.83298,0 4.5132,-1.74832 4.5132,-4.51196 v -4.65312 c 0,-2.83298 -1.68022,-4.51197 -4.5132,-4.51197 h -18.82049 c -4.78684,0 -4.70141,-0.14858 -6.60822,-3.45083 -3.05833,-7.134452 -11.47555,-21.331539 -45.70655,-21.331539 z"
     style="stroke-width:1.23819;paint-order:normal"
     id="path2" /><path
     d="m 254.628,108.378 q 0,0.43 -0.313,0.671 -0.313,0.24 -0.844,0.24 -0.272,0 -0.503,-0.04 -0.231,-0.04 -0.386,-0.114 v -0.39 q 0.164,0.073 0.404,0.132 0.245,0.06 0.504,0.06 0.362,0 0.544,-0.142 0.186,-0.14 0.186,-0.38 0,-0.16 -0.068,-0.269 -0.068,-0.109 -0.236,-0.2 -0.163,-0.095 -0.458,-0.199 -0.413,-0.15 -0.626,-0.367 -0.21,-0.218 -0.21,-0.594 0,-0.259 0.133,-0.44 0.13,-0.186 0.363,-0.286 0.235,-0.1 0.54,-0.1 0.267,0 0.49,0.05 0.223,0.05 0.403,0.131 l -0.127,0.35 q -0.168,-0.073 -0.367,-0.123 -0.195,-0.05 -0.41,-0.05 -0.303,0 -0.457,0.132 -0.154,0.127 -0.154,0.34 0,0.163 0.068,0.272 0.068,0.109 0.222,0.195 0.154,0.086 0.418,0.186 0.285,0.105 0.48,0.227 0.2,0.118 0.3,0.286 0.104,0.168 0.104,0.422 m 1.51,-2.373 q 0.636,0 0.926,0.25 0.29,0.25 0.29,0.703 0,0.267 -0.122,0.503 -0.118,0.232 -0.404,0.377 -0.281,0.145 -0.767,0.145 h -0.371 v 1.261 h -0.41 v -3.239 z m -0.036,0.35 h -0.413 v 1.28 h 0.327 q 0.463,0 0.69,-0.15 0.227,-0.15 0.226,-0.509 0,-0.313 -0.2,-0.467 -0.2,-0.154 -0.63,-0.154 m 3.733,2.89 h -1.81 v -3.24 h 1.81 v 0.36 h -1.401 v 1.01 h 1.32 v 0.354 h -1.32 v 1.157 h 1.4 z m 2.522,0 h -1.81 v -3.24 h 1.81 v 0.36 h -1.401 v 1.01 h 1.32 v 0.354 h -1.32 v 1.157 h 1.4 z m 3.307,-1.652 q 0,0.82 -0.45,1.238 -0.443,0.413 -1.242,0.413 h -0.902 v -3.239 h 0.997 q 0.49,0 0.849,0.182 0.358,0.181 0.553,0.535 0.195,0.35 0.195,0.87 m -0.43,0.013 q 0,-0.648 -0.323,-0.948 -0.317,-0.303 -0.903,-0.303 h -0.53 v 2.54 h 0.44 q 1.315,0 1.315,-1.289 m 2.072,-1.6 q 0.608,0 0.916,0.18 0.313,0.178 0.313,0.622 0,0.286 -0.158,0.476 -0.16,0.186 -0.458,0.24 v 0.024 q 0.204,0.031 0.367,0.117 0.168,0.087 0.263,0.245 0.095,0.16 0.095,0.413 0,0.44 -0.304,0.68 -0.3,0.241 -0.82,0.241 h -1.14 v -3.239 z m 0.082,1.378 q 0.417,0 0.57,-0.13 0.156,-0.137 0.156,-0.4 0,-0.268 -0.191,-0.38 -0.186,-0.119 -0.6,-0.119 h -0.534 v 1.03 z m -0.6,0.34 v 1.175 h 0.654 q 0.43,0 0.599,-0.168 0.168,-0.167 0.168,-0.44 0,-0.254 -0.177,-0.408 -0.172,-0.159 -0.622,-0.159 z m 5.004,0.377 q 0,0.336 -0.136,0.608 -0.136,0.267 -0.417,0.426 -0.277,0.154 -0.708,0.154 -0.603,0 -0.92,-0.326 -0.314,-0.33 -0.314,-0.87 v -2.088 h 0.409 v 2.1 q 0,0.395 0.208,0.613 0.214,0.218 0.64,0.218 0.44,0 0.635,-0.232 0.2,-0.236 0.2,-0.603 v -2.096 h 0.403 z m 2.282,1.143 -1.066,-2.84 h -0.018 q 0.013,0.141 0.022,0.381 0.01,0.236 0.01,0.495 v 1.964 h -0.377 v -3.239 h 0.603 l 0.998,2.654 h 0.018 l 1.016,-2.654 h 0.6 v 3.24 h -0.405 v -1.992 q 0,-0.236 0.01,-0.468 l 0.022,-0.376 h -0.018 l -1.08,2.835 z"
     aria-label="SPEEDBUMP"
     style="font-size:4.536px;fill:none;stroke-width:8.151;stroke-linejoin:round"
     id="path3" /><path
     d="m 307.432,107.611 q 0,11.883 -6.303,20.346 -6.122,8.463 -19.806,8.463 -12.965,0 -19.807,-9.003 -6.662,-9.003 -7.202,-23.228 h 16.025 q 0.36,16.025 10.984,16.565 9.543,-0.72 9.723,-13.144 0.36,-7.923 -8.463,-20.887 -8.643,-12.964 -15.485,-21.427 -5.042,-6.302 -7.562,-12.964 -2.341,-6.843 -2.341,-12.424 0,-10.984 6.302,-19.627 6.482,-8.643 18.006,-8.643 9.903,0 17.466,7.743 7.562,7.742 7.742,20.527 h -15.665 q -0.54,-12.785 -9.003,-12.605 -8.283,0.18 -8.283,12.424 -0.18,4.142 1.98,8.643 2.162,4.502 6.123,9.003 12.964,15.125 19.266,27.37 6.303,12.064 6.303,22.867 m 66.982,-60.14 q 0,13.324 -8.103,21.966 -8.103,8.642 -19.807,8.464 H 337.5 v 56.36 H 322.375 V 13.618 h 23.588 q 12.064,0 20.167,8.822 8.283,8.643 8.283,25.028 m -15.665,-0.72 q 0,-9.004 -3.782,-13.146 -3.6,-4.32 -9.723,-4.32 H 337.5 v 32.59 h 9.003 q 5.762,-0.54 9.003,-4.68 3.242,-4.143 3.242,-10.445 m 77.605,87.51 H 390.258 V 13.617 h 44.475 v 15.664 h -29.35 v 30.97 h 19.627 v 16.026 h -19.627 v 42.314 h 30.97 z m 58.52,0 H 448.778 V 13.617 h 44.475 v 15.664 h -29.35 v 30.97 h 19.626 v 16.026 h -19.625 v 42.314 h 30.97 z m 66.802,-60.32 q 0,29.71 -6.662,45.014 -6.482,15.305 -20.527,15.305 H 509.638 V 13.617 h 24.848 q 14.045,0 20.527,13.684 6.663,13.505 6.663,46.636 m -15.125,0 q -0.36,-30.25 -4.14,-37.453 -3.782,-7.382 -9.904,-7.202 h -7.743 v 89.31 h 7.743 q 5.942,0.18 9.903,-9.003 3.96,-9.183 4.14,-35.652 m 81.75,25.208 q 0,18.546 -7.563,26.83 -7.562,8.282 -19.266,8.282 h -25.03 V 13.617 h 24.31 q 11.523,0 18.186,8.283 6.842,8.282 6.842,23.948 0,15.485 -7.563,24.308 Q 628.3,81.14 628.3,99.146 M 611.014,45.128 q 0,-6.662 -2.52,-10.803 -2.522,-4.322 -7.023,-5.042 h -10.086 v 32.951 h 9.904 q 5.04,-0.54 7.382,-5.402 2.34,-4.86 2.34,-11.704 m 1.8,54.018 q 0.36,-8.282 -3.06,-14.044 -3.241,-5.942 -8.462,-5.942 h -9.904 v 39.433 h 10.264 q 4.68,-0.36 7.742,-5.402 3.242,-5.222 3.422,-14.045 m 83.908,5.582 q 0,11.704 -3.78,18.906 -6.843,12.785 -21.968,12.785 -18.006,0 -24.128,-16.566 -2.16,-5.762 -2.16,-15.125 v -91.11 h 15.124 v 93.09 q 0,14.046 11.164,14.046 10.443,0 10.443,-14.045 V 13.62 h 15.305 z m 77.606,29.53 H 759.202 V 62.774 l -14.404,45.195 -14.945,-45.195 v 71.484 H 714.728 V 13.618 h 13.144 l 16.926,49.156 16.205,-49.156 h 13.324 z M 843.47,47.47 q 0,13.325 -8.103,21.967 -8.103,8.643 -19.807,8.463 h -9.003 v 56.36 H 791.432 V 13.618 h 23.588 q 12.064,0 20.167,8.822 8.283,8.643 8.283,25.028 m -15.666,-0.72 q 0,-9.003 -3.78,-13.145 -3.602,-4.32 -9.724,-4.32 h -7.743 v 32.59 h 9.003 q 5.762,-0.54 9.003,-4.68 3.24,-4.143 3.24,-10.445"
     aria-label="SPEEDBUMP"
     style="font-size:180.06px;font-family:'Highway Gothic Condensed';stroke-width:20.225;stroke-linejoin:round"
     id="path4" /><path
     d="m 288.281,185.96161 q 0,5.90176 -3.5702,10.27343 -3.49733,4.29881 -10.27343,4.29881 h -19.23535 v -48.817 h 18.50674 q 5.75604,0 9.61768,3.5702 3.86164,3.49733 3.86164,9.83626 -0.0729,7.35898 -4.73597,10.20057 5.82889,3.27875 5.82889,10.63773 z m -8.52476,-20.25541 q 0,-2.69587 -1.45722,-4.37167 -1.38437,-1.67581 -4.08023,-1.67581 H 262.9253 v 11.87637 h 11.22063 q 2.47728,0 4.00737,-1.82153 1.53008,-1.89439 1.60294,-4.00736 z m 0.58289,20.474 q -0.0729,-2.69587 -1.60295,-4.5174 -1.53008,-1.89439 -4.00736,-1.96725 h -11.87638 v 13.11501 h 11.58493 q 2.69587,0 4.29881,-2.04011 1.60295,-2.04011 1.60295,-4.59025 z m 35.70201,-19.67253 -2.55014,7.06754 q -2.18584,-2.18584 -4.44453,-2.11298 -4.8817,0.14573 -5.17315,6.84896 v 22.22266 h -7.86901 v -36.21201 h 7.79615 v 2.623 q 1.96725,-2.91445 5.68317,-2.91445 3.71592,0.0729 6.55751,2.47728 z m 14.28078,-11.65779 q 0,1.67581 -1.16578,2.84159 -1.16578,1.09291 -2.76872,1.09291 -1.53009,0 -2.76873,-1.16577 -1.16578,-1.23864 -1.16578,-2.76873 0,-1.53008 1.16578,-2.69586 1.23864,-1.23864 2.76873,-1.23864 1.53008,0 2.69586,1.23864 1.23864,1.16578 1.23864,2.69586 z m 0.0729,45.68397 h -7.94187 v -35.62912 h 7.94187 z m 7.65049,-17.99671 q 0,-7.50471 2.84159,-12.16782 3.78878,-6.33893 12.0221,-6.33893 10.56487,0 13.55218,8.96193 l -7.21326,2.91445 q -1.60294,-4.66312 -6.41178,-4.59026 -3.93451,0 -5.68318,4.22595 -1.23864,2.98731 -1.23864,6.99468 0,4.00736 1.23864,6.99467 1.74867,4.22595 5.68318,4.22595 4.80884,0.0729 6.41178,-4.59026 l 7.21326,2.91445 q -2.98731,8.96193 -13.55218,8.96193 -8.23332,0 -12.0221,-6.33892 -2.84159,-4.66312 -2.84159,-12.16782 z m 34.24478,-27.83298 7.57756,-3.78878 v 15.81088 q 3.2059,-2.69587 8.52476,-2.69587 6.19321,0 9.25338,4.22595 3.06017,4.22595 3.06017,9.83626 v 22.44125 h -7.50471 v -22.29553 q 0.14573,-2.76872 -1.82153,-4.95456 -1.96725,-2.25869 -4.95456,-2.11297 -3.13303,0 -4.80884,1.82153 -1.60294,1.82153 -1.60294,5.246 v 22.29553 h -7.72329 z m 92.82513,45.82969 h -8.16046 l -4.80884,-13.6979 h -15.22799 l -4.80884,13.6979 h -8.23331 l 16.75807,-48.817 h 7.72329 z m -15.73802,-21.56691 -4.80884,-13.69791 -4.95456,13.69791 z m 35.48337,22.44125 q -3.78878,0 -6.84895,-2.11298 v 15.00941 l -7.72329,3.86164 v -53.84442 h 7.72329 v 2.25869 q 2.33156,-2.47728 6.70323,-2.55014 14.71796,0.29145 14.71796,19.23536 0,18.14244 -14.57224,18.14244 z m 6.99468,-18.2153 q 0,-11.22063 -7.1404,-11.6578 -4.44453,0 -6.55751,3.5702 v 16.02947 q 2.69587,3.49733 6.77609,3.42447 6.84895,-0.0729 6.92182,-11.36634 z m 29.80018,18.2153 q -3.7888,0 -6.84897,-2.11298 v 15.00941 l -7.72328,3.86164 v -53.84442 h 7.72328 v 2.25869 q 2.33157,-2.47728 6.70327,-2.55014 14.7179,0.29145 14.7179,19.23536 0,18.14244 -14.5722,18.14244 z m 6.9947,-18.2153 q 0,-11.22063 -7.1404,-11.6578 -4.4446,0 -6.55754,3.5702 v 16.02947 q 2.69584,3.49733 6.77614,3.42447 6.8489,-0.0729 6.9218,-11.36634 z m 30.3102,-2.69587 h -16.2481 v -7.86901 h 16.2481 z m 28.1973,-17.70527 q -2.3316,-4.29881 -7.2133,-4.37167 -2.8416,0 -4.736,1.74867 -1.8944,1.74867 -1.8215,4.15309 0,1.74866 1.6758,3.13303 1.7487,1.38436 5.4646,1.96725 8.8162,1.53009 12.7507,5.97462 4.0074,4.37167 4.0074,10.05484 0,6.26607 -4.736,11.14777 -4.736,4.80884 -11.8035,4.80884 -11.2206,-0.14573 -16.6852,-11.36635 l 7.3589,-3.71592 q 3.4245,7.06753 9.472,7.06753 3.4973,0.0729 6.0475,-2.40442 2.5501,-2.55014 2.5501,-5.90175 0.073,-2.2587 -1.9672,-4.44454 -2.0402,-2.25869 -7.2133,-3.20589 -6.9947,-1.02006 -10.7106,-4.22595 -3.7159,-3.27875 -3.7159,-7.79615 -0.1457,-5.39172 3.7888,-9.90912 3.9345,-4.59025 10.4191,-4.59025 9.1077,0.21858 13.5522,8.59762 z m 44.1538,37.7421 h -7.5775 v -1.82153 q -3.2059,2.69587 -8.5248,2.69587 -6.1932,0 -9.2534,-4.22595 -3.0601,-4.22595 -3.0601,-9.83627 v -22.44124 h 7.5047 v 22.29552 q -0.1458,2.76873 1.8215,5.02743 1.9672,2.18583 4.9546,2.04011 3.133,0 4.7359,-1.82153 1.6758,-1.82153 1.6758,-5.24601 v -22.29552 h 7.7233 z m 5.8289,-17.99671 q 0,-7.50471 2.8416,-12.16782 3.7888,-6.33893 12.0221,-6.33893 10.5649,0 13.5522,8.96193 l -7.2132,2.91445 q -1.603,-4.66312 -6.4118,-4.59026 -3.9345,0 -5.6832,4.22595 -1.2386,2.98731 -1.2386,6.99468 0,4.00736 1.2386,6.99467 1.7487,4.22595 5.6832,4.22595 4.8088,0.0729 6.4118,-4.59026 l 7.2132,2.91445 q -2.9873,8.96193 -13.5522,8.96193 -8.2333,0 -12.0221,-6.33892 -2.8416,-4.66312 -2.8416,-12.16782 z m 34.2448,-27.83298 7.5776,-3.78878 v 15.81088 q 3.2059,-2.69587 8.5247,-2.69587 6.1932,0 9.2534,4.22595 3.0602,4.22595 3.0602,9.83626 v 22.44125 h -7.5047 v -22.29553 q 0.1457,-2.76872 -1.8215,-4.95456 -1.9673,-2.25869 -4.9546,-2.11297 -3.133,0 -4.8088,1.82153 -1.603,1.82153 -1.603,5.246 v 22.29553 h -7.7233 z m 52.0229,38.03354 -2.1129,7.72329 q -1.8216,0.9472 -4.226,0.9472 -2.7687,0 -5.0274,-2.55015 -2.2587,-2.55014 -2.2587,-6.84895 v -19.89111 h -5.1731 v -7.21325 h 5.1731 V 154.6313 l 7.5047,-3.71592 v 13.98935 h 6.1932 v 7.06753 h -6.1932 v 19.1625 q 0,2.91444 2.1858,3.06017 1.8216,0.0729 3.9345,-1.45723 z"
     id="text1"
     style="font-size:72.8612px;font-family:'Highway Gothic';-inkscape-font-specification:'Highway Gothic';fill:#494949;fill-opacity:1;stroke-width:0.758971"
     aria-label="Brich App-Sucht" /></svg>
